<?xml version="1.0" encoding="UTF-8" standalone="no"?>
<!DOCTYPE svg PUBLIC "-//W3C//DTD SVG 1.1//EN" "http://www.w3.org/Graphics/SVG/1.1/DTD/svg11.dtd">
<svg version="1.1" xmlns="http://www.w3.org/2000/svg" xmlns:xlink="http://www.w3.org/1999/xlink" preserveAspectRatio="xMidYMid meet" viewBox="0 0 44 42" width="44" height="42"><defs><path d="M58.31 -8.97L58.31 41.03L43.31 41.03L43.31 1.03L1.31 1.03L1.31 41.03L-1.69 41.03L-1.69 -8.97L58.31 -8.97Z" id="c1aLmQbNBc"></path><path d="M34.31 1.03L34.31 15.03L25.31 15.03L25.31 12.03L31.31 12.03L31.31 4.03L4.31 4.03L4.31 12.03L13.31 12.03L13.31 15.03L1.31 15.03L1.31 1.03L34.31 1.03Z" id="e7jbmfVvZ"></path><path d="M37.31 1.03L37.31 15.03L34.31 15.03L34.31 1.03L37.31 1.03Z" id="adXOIcqLT"></path><path d="M43.31 1.03L43.31 41.03L37.31 41.03L37.31 38.03L40.31 38.03L40.31 18.03L37.31 18.03L37.31 12.03L40.31 12.03L40.31 4.03L37.31 4.03L37.31 1.03L43.31 1.03Z" id="c9dWgBnXoQ"></path><path d="M31.31 4.03L31.31 7.03L4.31 7.03L4.31 4.03L31.31 4.03Z" id="b3lbl2l2Gq"></path><path d="M40.31 4.03L40.31 7.03L37.31 7.03L37.31 4.03L40.31 4.03Z" id="b4CWpbJyjC"></path><path d="M7.31 7.03L7.31 12.03L4.31 12.03L4.31 7.03L7.31 7.03Z" id="e2wzuG60l"></path><path d="M31.31 7.03L31.31 12.03L25.31 12.03L25.31 9.03L13.31 9.03L13.31 12.03L7.31 12.03L7.31 7.03L31.31 7.03Z" id="a3aopLFQYa"></path><path d="M40.31 7.03L40.31 12.03L37.31 12.03L37.31 7.03L40.31 7.03Z" id="b5DhdLe96"></path><path d="M19.31 9.03L19.31 15.03L16.31 15.03L16.31 12.03L13.31 12.03L13.31 9.03L19.31 9.03Z" id="b1gINWm8mh"></path><path d="M22.31 9.03L22.31 14.03L19.31 14.03L19.31 9.03L22.31 9.03Z" id="k83X5dF8xe"></path><path d="M25.31 9.03L25.31 12.03L22.31 12.03L22.31 9.03L25.31 9.03Z" id="aPOKHp8eH"></path><path d="M16.31 12.03L16.31 15.03L19.31 15.03L19.31 21.03L13.31 21.03L13.31 12.03L16.31 12.03Z" id="c1MZpXiiBc"></path><path d="M25.31 12.03L25.31 15.03L22.31 15.03L22.31 12.03L25.31 12.03Z" id="d2f1vSpwfG"></path><path d="M22.31 14.03L22.31 21.03L19.31 21.03L19.31 14.03L22.31 14.03Z" id="fioENDJNP"></path><path d="M13.31 15.03L13.31 18.03L4.31 18.03L4.31 38.03L31.31 38.03L31.31 18.03L25.31 18.03L25.31 15.03L34.31 15.03L34.31 41.03L1.31 41.03L1.31 15.03L13.31 15.03Z" id="bsaYZGeDN"></path><path d="M25.31 15.03L25.31 18.03L22.31 18.03L22.31 15.03L25.31 15.03Z" id="b37FSybmk"></path><path d="M37.31 15.03L37.31 41.03L34.31 41.03L34.31 15.03L37.31 15.03Z" id="c5QkzWKod2"></path><path d="M13.31 18.03L13.31 21.03L4.31 21.03L4.31 18.03L13.31 18.03Z" id="a3LZtzaRwr"></path><path d="M31.31 18.03L31.31 21.03L22.31 21.03L22.31 18.03L31.31 18.03Z" id="dttxuekdD"></path><path d="M40.31 18.03L40.31 21.03L37.31 21.03L37.31 18.03L40.31 18.03Z" id="b1dRr1deqH"></path><path d="M7.31 21.03L7.31 38.03L4.31 38.03L4.31 21.03L7.31 21.03Z" id="e1R30wGeBc"></path><path d="M13.31 21.03L13.31 24.03L25.31 24.03L25.31 21.03L31.31 21.03L31.31 38.03L7.31 38.03L7.31 21.03L13.31 21.03Z" id="b18WmkaJyF"></path><path d="M25.31 21.03L25.31 24.03L13.31 24.03L13.31 21.03L25.31 21.03Z" id="b4kjwTFW2D"></path><path d="M40.31 21.03L40.31 36.03L37.31 36.03L37.31 21.03L40.31 21.03Z" id="a40cr1N3p0"></path><path d="M40.31 36.03L40.31 38.03L37.31 38.03L37.31 36.03L40.31 36.03Z" id="d1OeeQyHF2"></path></defs><g><g><g><use xlink:href="#c1aLmQbNBc" opacity="1" fill="#000000" fill-opacity="0"></use><g><use xlink:href="#c1aLmQbNBc" opacity="1" fill-opacity="0" stroke="#000000" stroke-width="1" stroke-opacity="0"></use></g></g><g><use xlink:href="#e7jbmfVvZ" opacity="1" fill="#5a4b3a" fill-opacity="1"></use><g><use xlink:href="#e7jbmfVvZ" opacity="1" fill-opacity="0" stroke="#000000" stroke-width="1" stroke-opacity="0"></use></g></g><g><use xlink:href="#adXOIcqLT" opacity="1" fill="#3c3226" fill-opacity="1"></use><g><use xlink:href="#adXOIcqLT" opacity="1" fill-opacity="0" stroke="#000000" stroke-width="1" stroke-opacity="0"></use></g></g><g><use xlink:href="#c9dWgBnXoQ" opacity="1" fill="#2f261c" fill-opacity="1"></use><g><use xlink:href="#c9dWgBnXoQ" opacity="1" fill-opacity="0" stroke="#000000" stroke-width="1" stroke-opacity="0"></use></g></g><g><use xlink:href="#b3lbl2l2Gq" opacity="1" fill="#9f641c" fill-opacity="1"></use><g><use xlink:href="#b3lbl2l2Gq" opacity="1" fill-opacity="0" stroke="#000000" stroke-width="1" stroke-opacity="0"></use></g></g><g><use xlink:href="#b4CWpbJyjC" opacity="1" fill="#663e11" fill-opacity="1"></use><g><use xlink:href="#b4CWpbJyjC" opacity="1" fill-opacity="0" stroke="#000000" stroke-width="1" stroke-opacity="0"></use></g></g><g><use xlink:href="#e2wzuG60l" opacity="1" fill="#b4701f" fill-opacity="1"></use><g><use xlink:href="#e2wzuG60l" opacity="1" fill-opacity="0" stroke="#000000" stroke-width="1" stroke-opacity="0"></use></g></g><g><use xlink:href="#a3aopLFQYa" opacity="1" fill="#d08324" fill-opacity="1"></use><g><use xlink:href="#a3aopLFQYa" opacity="1" fill-opacity="0" stroke="#000000" stroke-width="1" stroke-opacity="0"></use></g></g><g><use xlink:href="#b5DhdLe96" opacity="1" fill="#714413" fill-opacity="1"></use><g><use xlink:href="#b5DhdLe96" opacity="1" fill-opacity="0" stroke="#000000" stroke-width="1" stroke-opacity="0"></use></g></g><g><use xlink:href="#b1gINWm8mh" opacity="1" fill="#dfdedb" fill-opacity="1"></use><g><use xlink:href="#b1gINWm8mh" opacity="1" fill-opacity="0" stroke="#000000" stroke-width="1" stroke-opacity="0"></use></g></g><g><use xlink:href="#k83X5dF8xe" opacity="1" fill="#767676" fill-opacity="1"></use><g><use xlink:href="#k83X5dF8xe" opacity="1" fill-opacity="0" stroke="#000000" stroke-width="1" stroke-opacity="0"></use></g></g><g><use xlink:href="#aPOKHp8eH" opacity="1" fill="#a86a1e" fill-opacity="1"></use><g><use xlink:href="#aPOKHp8eH" opacity="1" fill-opacity="0" stroke="#000000" stroke-width="1" stroke-opacity="0"></use></g></g><g><use xlink:href="#c1MZpXiiBc" opacity="1" fill="#c2c2c2" fill-opacity="1"></use><g><use xlink:href="#c1MZpXiiBc" opacity="1" fill-opacity="0" stroke="#000000" stroke-width="1" stroke-opacity="0"></use></g></g><g><use xlink:href="#d2f1vSpwfG" opacity="1" fill="#463a2d" fill-opacity="1"></use><g><use xlink:href="#d2f1vSpwfG" opacity="1" fill-opacity="0" stroke="#000000" stroke-width="1" stroke-opacity="0"></use></g></g><g><use xlink:href="#fioENDJNP" opacity="1" fill="#606475" fill-opacity="1"></use><g><use xlink:href="#fioENDJNP" opacity="1" fill-opacity="0" stroke="#000000" stroke-width="1" stroke-opacity="0"></use></g></g><g><use xlink:href="#bsaYZGeDN" opacity="1" fill="#463a2d" fill-opacity="1"></use><g><use xlink:href="#bsaYZGeDN" opacity="1" fill-opacity="0" stroke="#000000" stroke-width="1" stroke-opacity="0"></use></g></g><g><use xlink:href="#b37FSybmk" opacity="1" fill="#3b2e26" fill-opacity="1"></use><g><use xlink:href="#b37FSybmk" opacity="1" fill-opacity="0" stroke="#000000" stroke-width="1" stroke-opacity="0"></use></g></g><g><use xlink:href="#c5QkzWKod2" opacity="1" fill="#30281f" fill-opacity="1"></use><g><use xlink:href="#c5QkzWKod2" opacity="1" fill-opacity="0" stroke="#000000" stroke-width="1" stroke-opacity="0"></use></g></g><g><use xlink:href="#a3LZtzaRwr" opacity="1" fill="#9f641c" fill-opacity="1"></use><g><use xlink:href="#a3LZtzaRwr" opacity="1" fill-opacity="0" stroke="#000000" stroke-width="1" stroke-opacity="0"></use></g></g><g><use xlink:href="#dttxuekdD" opacity="1" fill="#9f641c" fill-opacity="1"></use><g><use xlink:href="#dttxuekdD" opacity="1" fill-opacity="0" stroke="#000000" stroke-width="1" stroke-opacity="0"></use></g></g><g><use xlink:href="#b1dRr1deqH" opacity="1" fill="#663e11" fill-opacity="1"></use><g><use xlink:href="#b1dRr1deqH" opacity="1" fill-opacity="0" stroke="#000000" stroke-width="1" stroke-opacity="0"></use></g></g><g><use xlink:href="#e1R30wGeBc" opacity="1" fill="#b4701f" fill-opacity="1"></use><g><use xlink:href="#e1R30wGeBc" opacity="1" fill-opacity="0" stroke="#000000" stroke-width="1" stroke-opacity="0"></use></g></g><g><use xlink:href="#b18WmkaJyF" opacity="1" fill="#d08324" fill-opacity="1"></use><g><use xlink:href="#b18WmkaJyF" opacity="1" fill-opacity="0" stroke="#000000" stroke-width="1" stroke-opacity="0"></use></g></g><g><use xlink:href="#b4kjwTFW2D" opacity="1" fill="#b4701f" fill-opacity="1"></use><g><use xlink:href="#b4kjwTFW2D" opacity="1" fill-opacity="0" stroke="#000000" stroke-width="1" stroke-opacity="0"></use></g></g><g><use xlink:href="#a40cr1N3p0" opacity="1" fill="#714413" fill-opacity="1"></use><g><use xlink:href="#a40cr1N3p0" opacity="1" fill-opacity="0" stroke="#000000" stroke-width="1" stroke-opacity="0"></use></g></g><g><use xlink:href="#d1OeeQyHF2" opacity="1" fill="#663e11" fill-opacity="1"></use><g><use xlink:href="#d1OeeQyHF2" opacity="1" fill-opacity="0" stroke="#000000" stroke-width="1" stroke-opacity="0"></use></g></g></g></g></svg>