<?xml version="1.0" encoding="UTF-8" standalone="no"?>
<!DOCTYPE svg PUBLIC "-//W3C//DTD SVG 1.1//EN" "http://www.w3.org/Graphics/SVG/1.1/DTD/svg11.dtd">
<svg version="1.1" xmlns="http://www.w3.org/2000/svg" xmlns:xlink="http://www.w3.org/1999/xlink" preserveAspectRatio="xMidYMid meet" viewBox="0 0 640 640" width="640" height="640"><defs><path d="M352.8 107.08L353.21 107.14L353.61 107.21L353.99 107.31L354.37 107.42L354.73 107.56L355.08 107.72L355.42 107.89L355.75 108.08L356.07 108.29L356.39 108.52L356.69 108.77L356.98 109.03L357.27 109.31L357.54 109.61L357.81 109.92L358.08 110.24L358.33 110.58L358.58 110.94L358.82 111.31L359.05 111.69L359.28 112.08L359.51 112.49L359.72 112.91L359.94 113.34L360.15 113.78L360.35 114.23L360.55 114.7L360.75 115.17L360.94 115.65L361.13 116.14L361.32 116.64L361.51 117.15L361.69 117.67L361.87 118.19L362.05 118.72L362.23 119.26L362.41 119.8L362.59 120.35L371.8 154.89L374.69 155.79L381.08 158.06L387.35 160.57L393.5 163.31L399.52 166.28L400.01 166.55L431.06 148.58L431.57 148.32L432.08 148.06L432.59 147.81L433.09 147.56L433.59 147.32L434.09 147.09L434.58 146.86L435.06 146.64L435.55 146.43L436.02 146.22L436.5 146.03L436.97 145.84L437.43 145.67L437.89 145.5L438.35 145.35L438.8 145.2L439.24 145.08L439.68 144.96L440.12 144.85L440.55 144.76L440.98 144.69L441.4 144.63L441.81 144.58L442.22 144.55L442.63 144.54L443.03 144.55L443.42 144.57L443.81 144.61L444.19 144.67L444.57 144.74L444.94 144.84L445.3 144.96L445.66 145.1L446.01 145.26L446.36 145.44L446.7 145.65L447.04 145.87L447.36 146.12L447.68 146.4L448 146.7L493.18 191.87L493.48 192.19L493.75 192.51L494.01 192.85L494.24 193.18L494.45 193.53L494.64 193.89L494.81 194.25L494.96 194.62L495.09 194.99L495.2 195.37L495.29 195.76L495.36 196.16L495.41 196.56L495.44 196.96L495.46 197.37L495.46 197.79L495.44 198.21L495.41 198.64L495.36 199.07L495.29 199.5L495.21 199.94L495.11 200.39L495 200.83L494.88 201.28L494.74 201.74L494.59 202.2L494.42 202.66L494.24 203.12L494.06 203.58L493.86 204.05L493.64 204.52L493.42 204.99L493.19 205.47L492.94 205.94L492.69 206.42L492.43 206.9L492.16 207.38L491.88 207.86L491.59 208.33L491.29 208.81L473.35 239.81L473.72 240.48L476.69 246.5L479.43 252.65L481.94 258.92L484.21 265.31L485.11 268.2L519.65 277.41L520.2 277.54L520.74 277.67L521.28 277.81L521.81 277.96L522.33 278.11L522.85 278.27L523.36 278.43L523.86 278.6L524.35 278.78L524.83 278.96L525.3 279.15L525.77 279.35L526.22 279.55L526.66 279.76L527.09 279.98L527.51 280.2L527.92 280.43L528.31 280.67L528.69 280.91L529.06 281.17L529.42 281.43L529.76 281.7L530.08 281.97L530.39 282.26L530.69 282.55L530.97 282.86L531.23 283.17L531.48 283.49L531.71 283.81L531.92 284.15L532.11 284.5L532.28 284.85L532.44 285.22L532.58 285.6L532.69 285.98L532.79 286.38L532.86 286.78L532.92 287.19L532.95 287.62L532.96 288.06L532.96 351.94L532.95 352.38L532.92 352.8L532.86 353.21L532.79 353.61L532.69 353.99L532.58 354.37L532.44 354.73L532.28 355.08L532.11 355.42L531.92 355.75L531.71 356.07L531.48 356.39L531.23 356.69L530.97 356.98L530.69 357.27L530.39 357.54L530.08 357.81L529.76 358.08L529.42 358.33L529.06 358.58L528.69 358.82L528.31 359.05L527.92 359.28L527.51 359.51L527.09 359.72L526.66 359.94L526.22 360.15L525.77 360.35L525.3 360.55L524.83 360.75L524.35 360.94L523.86 361.13L523.36 361.32L522.85 361.51L522.33 361.69L521.81 361.87L521.28 362.05L520.74 362.23L520.2 362.41L519.65 362.59L485.11 371.8L484.21 374.69L481.94 381.08L479.43 387.35L476.69 393.5L473.72 399.52L473.38 400.13L491.29 431.06L491.59 431.54L491.88 432.02L492.16 432.5L492.43 432.98L492.69 433.45L492.94 433.93L493.19 434.4L493.42 434.88L493.64 435.35L493.86 435.82L494.06 436.29L494.24 436.75L494.42 437.22L494.59 437.68L494.74 438.14L494.88 438.59L495 439.04L495.11 439.49L495.21 439.93L495.29 440.37L495.36 440.81L495.41 441.24L495.44 441.66L495.46 442.08L495.46 442.5L495.44 442.91L495.41 443.32L495.36 443.72L495.29 444.11L495.2 444.5L495.09 444.88L494.96 445.26L494.81 445.62L494.64 445.99L494.45 446.34L494.24 446.69L494.01 447.03L493.75 447.36L493.48 447.68L493.18 448L448 493.18L447.68 493.47L447.36 493.75L447.04 494L446.7 494.23L446.36 494.43L446.01 494.61L445.66 494.77L445.3 494.91L444.94 495.03L444.57 495.13L444.19 495.21L443.81 495.26L443.42 495.3L443.03 495.33L442.63 495.33L442.22 495.32L441.81 495.29L441.4 495.24L440.98 495.18L440.55 495.11L440.12 495.02L439.68 494.91L439.24 494.8L438.8 494.67L438.35 494.53L437.89 494.37L437.43 494.21L436.97 494.03L436.5 493.85L436.02 493.65L435.55 493.45L435.06 493.24L434.58 493.01L434.09 492.79L433.59 492.55L433.09 492.31L432.59 492.06L432.08 491.81L431.57 491.55L431.06 491.29L400.13 473.38L399.52 473.72L393.5 476.69L387.35 479.43L381.08 481.94L374.69 484.21L371.8 485.11L362.59 519.65L362.41 520.2L362.23 520.74L362.05 521.28L361.87 521.81L361.69 522.33L361.51 522.85L361.32 523.36L361.13 523.86L360.94 524.35L360.75 524.83L360.55 525.3L360.35 525.77L360.15 526.22L359.94 526.66L359.72 527.09L359.51 527.51L359.28 527.92L359.05 528.31L358.82 528.69L358.58 529.06L358.33 529.42L358.08 529.76L357.81 530.08L357.54 530.39L357.27 530.69L356.98 530.97L356.69 531.23L356.39 531.48L356.07 531.71L355.75 531.92L355.42 532.11L355.08 532.28L354.73 532.44L354.37 532.58L353.99 532.69L353.61 532.79L353.21 532.86L352.8 532.92L352.38 532.95L351.94 532.96L288.06 532.96L287.62 532.95L287.19 532.92L286.78 532.86L286.38 532.79L285.98 532.69L285.6 532.58L285.22 532.44L284.85 532.28L284.5 532.11L284.15 531.92L283.81 531.71L283.49 531.48L283.17 531.23L282.86 530.97L282.55 530.69L282.26 530.39L281.97 530.08L281.7 529.76L281.43 529.42L281.17 529.06L280.91 528.69L280.67 528.31L280.43 527.92L280.2 527.51L279.98 527.09L279.76 526.66L279.55 526.22L279.35 525.77L279.15 525.3L278.96 524.83L278.78 524.35L278.6 523.86L278.43 523.36L278.27 522.85L278.11 522.33L277.96 521.81L277.81 521.28L277.67 520.74L277.54 520.2L277.41 519.65L268.2 485.11L265.31 484.21L258.92 481.94L252.65 479.43L246.5 476.69L240.48 473.72L239.76 473.32L208.94 491.17L208.46 491.46L207.98 491.75L207.5 492.03L207.02 492.3L206.55 492.56L206.07 492.82L205.6 493.06L205.12 493.29L204.65 493.52L204.18 493.73L203.71 493.93L203.25 494.12L202.78 494.29L202.32 494.46L201.86 494.61L201.41 494.75L200.96 494.87L200.51 494.98L200.07 495.08L199.63 495.16L199.19 495.23L198.76 495.28L198.34 495.31L197.92 495.33L197.5 495.33L197.09 495.31L196.68 495.28L196.28 495.23L195.89 495.16L195.5 495.07L195.12 494.96L194.74 494.83L194.38 494.68L194.01 494.51L193.66 494.32L193.31 494.11L192.97 493.88L192.64 493.63L192.32 493.35L192 493.05L146.82 447.87L146.53 447.56L146.25 447.24L146 446.91L145.77 446.57L145.57 446.23L145.39 445.89L145.23 445.53L145.09 445.18L144.97 444.81L144.87 444.44L144.79 444.06L144.74 443.68L144.7 443.29L144.67 442.9L144.67 442.5L144.68 442.1L144.71 441.69L144.76 441.27L144.82 440.85L144.89 440.42L144.98 439.99L145.09 439.56L145.2 439.12L145.33 438.67L145.47 438.22L145.63 437.76L145.79 437.3L145.97 436.84L146.15 436.37L146.35 435.9L146.55 435.42L146.76 434.94L146.99 434.45L147.21 433.96L147.45 433.46L147.69 432.97L147.94 432.46L148.19 431.96L148.45 431.45L148.71 430.93L166.58 400.07L166.28 399.52L163.31 393.5L160.57 387.35L158.06 381.08L155.79 374.69L154.89 371.8L120.35 362.59L119.8 362.41L119.26 362.23L118.72 362.05L118.19 361.87L117.67 361.69L117.15 361.51L116.64 361.32L116.14 361.13L115.65 360.94L115.17 360.75L114.7 360.55L114.23 360.35L113.78 360.15L113.34 359.94L112.91 359.72L112.49 359.51L112.08 359.28L111.69 359.05L111.31 358.82L110.94 358.58L110.58 358.33L110.24 358.08L109.92 357.81L109.61 357.54L109.31 357.27L109.03 356.98L108.77 356.69L108.52 356.39L108.29 356.07L108.08 355.75L107.89 355.42L107.72 355.08L107.56 354.73L107.42 354.37L107.31 353.99L107.21 353.61L107.14 353.21L107.08 352.8L107.05 352.38L107.04 351.94L107.04 288.06L107.05 287.62L107.08 287.19L107.14 286.78L107.21 286.38L107.31 285.98L107.42 285.6L107.56 285.22L107.72 284.85L107.89 284.5L108.08 284.15L108.29 283.81L108.52 283.49L108.77 283.17L109.03 282.86L109.31 282.55L109.61 282.26L109.92 281.97L110.24 281.7L110.58 281.43L110.94 281.17L111.31 280.91L111.69 280.67L112.08 280.43L112.49 280.2L112.91 279.98L113.34 279.76L113.78 279.55L114.23 279.35L114.7 279.15L115.17 278.96L115.65 278.78L116.14 278.6L116.64 278.43L117.15 278.27L117.67 278.11L118.19 277.96L118.72 277.81L119.26 277.67L119.8 277.54L120.35 277.41L154.89 268.2L155.79 265.31L158.06 258.92L160.57 252.65L163.31 246.5L166.28 240.48L166.62 239.87L148.71 208.94L148.45 208.43L148.19 207.92L147.94 207.41L147.69 206.91L147.45 206.41L147.21 205.91L146.99 205.42L146.76 204.94L146.55 204.45L146.35 203.98L146.15 203.5L145.97 203.03L145.79 202.57L145.63 202.11L145.47 201.65L145.33 201.2L145.2 200.76L145.09 200.32L144.98 199.88L144.89 199.45L144.82 199.02L144.76 198.6L144.71 198.19L144.68 197.78L144.67 197.37L144.67 196.97L144.7 196.58L144.74 196.19L144.79 195.81L144.87 195.43L144.97 195.06L145.09 194.7L145.23 194.34L145.39 193.99L145.57 193.64L145.77 193.3L146 192.96L146.25 192.64L146.53 192.32L146.82 192L192 146.82L192.32 146.52L192.64 146.25L192.97 145.99L193.31 145.76L193.66 145.55L194.01 145.36L194.38 145.19L194.74 145.04L195.12 144.91L195.5 144.8L195.89 144.71L196.28 144.64L196.68 144.59L197.09 144.56L197.5 144.54L197.92 144.54L198.34 144.56L198.76 144.59L199.19 144.64L199.63 144.71L200.07 144.79L200.51 144.89L200.96 145L201.41 145.12L201.86 145.26L202.32 145.41L202.78 145.58L203.25 145.76L203.71 145.94L204.18 146.14L204.65 146.36L205.12 146.58L205.6 146.81L206.07 147.06L206.55 147.31L207.02 147.57L207.5 147.84L207.98 148.12L208.46 148.41L208.94 148.71L239.87 166.62L240.48 166.28L246.5 163.31L252.65 160.57L258.92 158.06L265.31 155.79L268.2 154.89L277.41 120.35L277.54 119.8L277.67 119.26L277.81 118.72L277.96 118.19L278.11 117.67L278.27 117.15L278.43 116.64L278.6 116.14L278.78 115.65L278.96 115.17L279.15 114.7L279.35 114.23L279.55 113.78L279.76 113.34L279.98 112.91L280.2 112.49L280.43 112.08L280.67 111.69L280.91 111.31L281.17 110.94L281.43 110.58L281.7 110.24L281.97 109.92L282.26 109.61L282.55 109.31L282.86 109.03L283.17 108.77L283.49 108.52L283.81 108.29L284.15 108.08L284.5 107.89L284.85 107.72L285.22 107.56L285.6 107.42L285.98 107.31L286.38 107.21L286.78 107.14L287.19 107.08L287.62 107.05L288.06 107.04L351.94 107.04L352.38 107.05L352.8 107.08ZM312.36 227.14L308.6 227.52L304.89 228.05L301.22 228.72L297.61 229.54L294.05 230.49L290.55 231.58L287.11 232.8L283.73 234.15L280.42 235.63L277.18 237.23L274.01 238.95L270.92 240.79L267.91 242.74L264.97 244.81L262.13 246.98L259.37 249.26L256.69 251.64L254.12 254.12L251.64 256.69L249.26 259.37L246.98 262.13L244.81 264.97L242.74 267.91L240.79 270.92L238.95 274.01L237.23 277.18L235.63 280.42L234.15 283.73L232.8 287.11L231.58 290.55L230.49 294.05L229.54 297.61L228.72 301.22L228.05 304.89L227.52 308.6L227.14 312.36L226.91 316.16L226.83 320L226.91 323.84L227.14 327.64L227.52 331.4L228.05 335.11L228.72 338.78L229.54 342.39L230.49 345.95L231.58 349.45L232.8 352.89L234.15 356.27L235.63 359.58L237.23 362.82L238.95 365.99L240.79 369.08L242.74 372.09L244.81 375.03L246.98 377.87L249.26 380.63L251.64 383.31L254.12 385.88L256.69 388.36L259.37 390.74L262.13 393.02L264.97 395.19L267.91 397.26L270.92 399.21L274.01 401.05L277.18 402.77L280.42 404.37L283.73 405.85L287.11 407.2L290.55 408.42L294.05 409.51L297.61 410.46L301.22 411.28L304.89 411.95L308.6 412.48L312.36 412.86L316.16 413.09L320 413.17L323.84 413.09L327.64 412.86L331.4 412.48L335.11 411.95L338.78 411.28L342.39 410.46L345.95 409.51L349.45 408.42L352.89 407.2L356.27 405.85L359.58 404.37L362.82 402.77L365.99 401.05L369.08 399.21L372.09 397.26L375.03 395.19L377.87 393.02L380.63 390.74L383.31 388.36L385.88 385.88L388.36 383.31L390.74 380.63L393.02 377.87L395.19 375.03L397.26 372.09L399.21 369.08L401.05 365.99L402.77 362.82L404.37 359.58L405.85 356.27L407.2 352.89L408.42 349.45L409.51 345.95L410.46 342.39L411.28 338.78L411.95 335.11L412.48 331.4L412.86 327.64L413.09 323.84L413.17 320L413.09 316.16L412.86 312.36L412.48 308.6L411.95 304.89L411.28 301.22L410.46 297.61L409.51 294.05L408.42 290.55L407.2 287.11L405.85 283.73L404.37 280.42L402.77 277.18L401.05 274.01L399.21 270.92L397.26 267.91L395.19 264.97L393.02 262.13L390.74 259.37L388.36 256.69L385.88 254.12L383.31 251.64L380.63 249.26L377.87 246.98L375.03 244.81L372.09 242.74L369.08 240.79L365.99 238.95L362.82 237.23L359.58 235.63L356.27 234.15L352.89 232.8L349.45 231.58L345.95 230.49L342.39 229.54L338.78 228.72L335.11 228.05L331.4 227.52L327.64 227.14L323.84 226.91L320 226.83L316.16 226.91L312.36 227.14Z" id="ccxGV9fVA"></path></defs><g><g><g><use xlink:href="#ccxGV9fVA" opacity="1" fill="#bae1ff" fill-opacity="1"></use></g></g></g></svg>