<?xml version="1.0" encoding="UTF-8" standalone="no"?>
<!DOCTYPE svg PUBLIC "-//W3C//DTD SVG 1.1//EN" "http://www.w3.org/Graphics/SVG/1.1/DTD/svg11.dtd">
<svg version="1.1" xmlns="http://www.w3.org/2000/svg" xmlns:xlink="http://www.w3.org/1999/xlink" preserveAspectRatio="xMidYMid meet" viewBox="0 0 520 210" width="520" height="210"><defs><path d="M130 107.51C130 143.39 100.87 172.51 65 172.51C29.13 172.51 0 143.39 0 107.51C0 71.64 29.13 42.51 65 42.51C100.87 42.51 130 71.64 130 107.51Z" id="b5lDMvDgUa"></path><path d="M520 107.51C520 143.39 490.87 172.51 455 172.51C419.13 172.51 390 143.39 390 107.51C390 71.64 419.13 42.51 455 42.51C490.87 42.51 520 71.64 520 107.51Z" id="fSA4g7OT7"></path><path d="M266.2 1.09C280.54 9.37 265.29 62.65 232.18 120.01C199.06 177.37 160.54 217.21 146.2 208.93C131.86 200.66 147.1 147.37 180.22 90.01C213.33 32.65 251.86 -7.19 266.2 1.09Z" id="aW7YUn3rF"></path><path d="M375.29 1.09C389.63 9.37 374.38 62.65 341.27 120.01C308.15 177.37 269.63 217.21 255.29 208.93C240.95 200.66 256.19 147.37 289.31 90.01C322.42 32.65 360.95 -7.19 375.29 1.09Z" id="d1qHLBpghS"></path></defs><g><g><g><use xlink:href="#b5lDMvDgUa" opacity="1" fill="#BAE1FF" fill-opacity="1"></use></g><g><use xlink:href="#fSA4g7OT7" opacity="1" fill="#BAE1FF" fill-opacity="1"></use></g><g><use xlink:href="#aW7YUn3rF" opacity="1" fill="#BAE1FF" fill-opacity="1"></use></g><g><use xlink:href="#d1qHLBpghS" opacity="1" fill="#BAE1FF" fill-opacity="1"></use></g></g></g></svg>