<?xml version="1.0" encoding="UTF-8" standalone="no"?>
<!DOCTYPE svg PUBLIC "-//W3C//DTD SVG 1.1//EN" "http://www.w3.org/Graphics/SVG/1.1/DTD/svg11.dtd">
<svg version="1.1" xmlns="http://www.w3.org/2000/svg" xmlns:xlink="http://www.w3.org/1999/xlink" preserveAspectRatio="xMidYMid meet" viewBox="0 0 640 640" width="640" height="640"><defs><path d="M377.52 106.52L377.8 106.55L378.09 106.59L378.37 106.64L378.64 106.71L378.91 106.78L379.18 106.86L379.44 106.96L379.7 107.06L379.96 107.17L380.2 107.29L380.44 107.43L380.68 107.57L380.91 107.72L381.14 107.87L381.35 108.04L381.56 108.21L381.77 108.4L381.96 108.59L382.15 108.78L382.34 108.99L382.51 109.2L382.68 109.41L382.83 109.64L382.98 109.87L383.12 110.11L383.26 110.35L383.38 110.59L383.49 110.85L383.59 111.11L383.69 111.37L383.77 111.64L383.84 111.91L383.91 112.18L383.96 112.46L384 112.75L384.03 113.03L384.04 113.32L384.05 113.62L384.05 255.95L526.38 255.95L526.68 255.96L526.97 255.97L527.25 256L527.54 256.04L527.82 256.09L528.09 256.16L528.36 256.23L528.63 256.31L528.89 256.41L529.15 256.51L529.41 256.62L529.65 256.74L529.89 256.88L530.13 257.02L530.36 257.17L530.59 257.32L530.8 257.49L531.01 257.66L531.22 257.85L531.41 258.04L531.6 258.23L531.79 258.44L531.96 258.65L532.13 258.86L532.28 259.09L532.43 259.32L532.57 259.56L532.71 259.8L532.83 260.04L532.94 260.3L533.04 260.56L533.14 260.82L533.22 261.09L533.29 261.36L533.36 261.63L533.41 261.91L533.45 262.2L533.48 262.48L533.49 262.77L533.5 263.07L533.5 376.93L533.49 377.23L533.48 377.52L533.45 377.8L533.41 378.09L533.36 378.37L533.29 378.64L533.22 378.91L533.14 379.18L533.04 379.44L532.94 379.7L532.83 379.96L532.71 380.2L532.57 380.44L532.43 380.68L532.28 380.91L532.13 381.14L531.96 381.35L531.79 381.56L531.6 381.77L531.41 381.96L531.22 382.15L531.01 382.34L530.8 382.51L530.59 382.68L530.36 382.83L530.13 382.98L529.89 383.12L529.65 383.26L529.41 383.38L529.15 383.49L528.89 383.59L528.63 383.69L528.36 383.77L528.09 383.84L527.82 383.91L527.54 383.96L527.25 384L526.97 384.03L526.68 384.04L526.38 384.05L384.05 384.05L384.05 526.38L384.04 526.68L384.03 526.97L384 527.25L383.96 527.54L383.91 527.82L383.84 528.09L383.77 528.36L383.69 528.63L383.59 528.89L383.49 529.15L383.38 529.41L383.26 529.65L383.12 529.89L382.98 530.13L382.83 530.36L382.68 530.59L382.51 530.8L382.34 531.01L382.15 531.22L381.96 531.41L381.77 531.6L381.56 531.79L381.35 531.96L381.14 532.13L380.91 532.28L380.68 532.43L380.44 532.57L380.2 532.71L379.96 532.83L379.7 532.94L379.44 533.04L379.18 533.14L378.91 533.22L378.64 533.29L378.37 533.36L378.09 533.41L377.8 533.45L377.52 533.48L377.23 533.49L376.93 533.5L263.07 533.5L262.77 533.49L262.48 533.48L262.2 533.45L261.91 533.41L261.63 533.36L261.36 533.29L261.09 533.22L260.82 533.14L260.56 533.04L260.3 532.94L260.04 532.83L259.8 532.71L259.56 532.57L259.32 532.43L259.09 532.28L258.86 532.13L258.65 531.96L258.44 531.79L258.23 531.6L258.04 531.41L257.85 531.22L257.66 531.01L257.49 530.8L257.32 530.59L257.17 530.36L257.02 530.13L256.88 529.89L256.74 529.65L256.62 529.41L256.51 529.15L256.41 528.89L256.31 528.63L256.23 528.36L256.16 528.09L256.09 527.82L256.04 527.54L256 527.25L255.97 526.97L255.96 526.68L255.95 526.38L255.95 384.05L113.62 384.05L113.32 384.04L113.03 384.03L112.75 384L112.46 383.96L112.18 383.91L111.91 383.84L111.64 383.77L111.37 383.69L111.11 383.59L110.85 383.49L110.59 383.38L110.35 383.26L110.11 383.12L109.87 382.98L109.64 382.83L109.41 382.68L109.2 382.51L108.99 382.34L108.78 382.15L108.59 381.96L108.4 381.77L108.21 381.56L108.04 381.35L107.87 381.14L107.72 380.91L107.57 380.68L107.43 380.44L107.29 380.2L107.17 379.96L107.06 379.7L106.96 379.44L106.86 379.18L106.78 378.91L106.71 378.64L106.64 378.37L106.59 378.09L106.55 377.8L106.52 377.52L106.51 377.23L106.5 376.93L106.5 263.07L106.51 262.77L106.52 262.48L106.55 262.2L106.59 261.91L106.64 261.63L106.71 261.36L106.78 261.09L106.86 260.82L106.96 260.56L107.06 260.3L107.17 260.04L107.29 259.8L107.43 259.56L107.57 259.32L107.72 259.09L107.87 258.86L108.04 258.65L108.21 258.44L108.4 258.23L108.59 258.04L108.78 257.85L108.99 257.66L109.2 257.49L109.41 257.32L109.64 257.17L109.87 257.02L110.11 256.88L110.35 256.74L110.59 256.62L110.85 256.51L111.11 256.41L111.37 256.31L111.64 256.23L111.91 256.16L112.18 256.09L112.46 256.04L112.75 256L113.03 255.97L113.32 255.96L113.62 255.95L255.95 255.95L255.95 113.62L255.96 113.32L255.97 113.03L256 112.75L256.04 112.46L256.09 112.18L256.16 111.91L256.23 111.64L256.31 111.37L256.41 111.11L256.51 110.85L256.62 110.59L256.74 110.35L256.88 110.11L257.02 109.87L257.17 109.64L257.32 109.41L257.49 109.2L257.66 108.99L257.85 108.78L258.04 108.59L258.23 108.4L258.44 108.21L258.65 108.04L258.86 107.87L259.09 107.72L259.32 107.57L259.56 107.43L259.8 107.29L260.04 107.17L260.3 107.06L260.56 106.96L260.82 106.86L261.09 106.78L261.36 106.71L261.63 106.64L261.91 106.59L262.2 106.55L262.48 106.52L262.77 106.51L263.07 106.5L376.93 106.5L377.23 106.51L377.52 106.52Z" id="a2GPq5D2X"></path></defs><g><g><g><use xlink:href="#a2GPq5D2X" opacity="1" fill="#bae1ff" fill-opacity="1"></use></g></g></g></svg>