<?xml version="1.0" encoding="UTF-8" standalone="no"?>
<!DOCTYPE svg PUBLIC "-//W3C//DTD SVG 1.1//EN" "http://www.w3.org/Graphics/SVG/1.1/DTD/svg11.dtd">
<svg version="1.1" xmlns="http://www.w3.org/2000/svg" xmlns:xlink="http://www.w3.org/1999/xlink" preserveAspectRatio="xMidYMid meet" viewBox="0 0 640 640" width="640" height="640"><defs><path d="M209.72 128.38L209.94 128.2L210.17 128.02L210.41 127.86L210.65 127.71L210.89 127.57L211.14 127.44L211.39 127.32L211.64 127.21L211.9 127.11L212.16 127.03L212.43 126.95L212.69 126.88L212.96 126.82L213.23 126.78L213.5 126.74L213.78 126.71L214.05 126.7L214.32 126.69L214.6 126.7L214.87 126.71L215.14 126.74L215.41 126.78L215.68 126.82L215.95 126.88L216.22 126.95L216.48 127.03L216.74 127.11L217 127.21L217.26 127.32L217.51 127.44L217.76 127.57L218 127.71L218.24 127.86L218.47 128.02L218.7 128.2L218.93 128.38L219.14 128.57L219.36 128.77L320 229.42L420.64 128.77L420.86 128.57L421.07 128.38L421.3 128.2L421.53 128.02L421.76 127.86L422 127.71L422.24 127.57L422.49 127.44L422.74 127.32L423 127.21L423.26 127.11L423.52 127.03L423.78 126.95L424.05 126.88L424.32 126.82L424.59 126.78L424.86 126.74L425.13 126.71L425.4 126.7L425.68 126.69L425.95 126.7L426.22 126.71L426.5 126.74L426.77 126.78L427.04 126.82L427.31 126.88L427.57 126.95L427.84 127.03L428.1 127.11L428.36 127.21L428.61 127.32L428.86 127.44L429.11 127.57L429.35 127.71L429.59 127.86L429.83 128.02L430.06 128.2L430.28 128.38L430.5 128.57L430.71 128.77L511.23 209.29L511.43 209.5L511.62 209.72L511.8 209.94L511.98 210.17L512.14 210.41L512.29 210.65L512.43 210.89L512.56 211.14L512.68 211.39L512.79 211.64L512.89 211.9L512.97 212.16L513.05 212.43L513.12 212.69L513.18 212.96L513.22 213.23L513.26 213.5L513.29 213.78L513.3 214.05L513.31 214.32L513.3 214.6L513.29 214.87L513.26 215.14L513.22 215.41L513.18 215.68L513.12 215.95L513.05 216.22L512.97 216.48L512.89 216.74L512.79 217L512.68 217.26L512.56 217.51L512.43 217.76L512.29 218L512.14 218.24L511.98 218.47L511.8 218.7L511.62 218.93L511.43 219.14L511.23 219.36L410.58 320L511.23 420.64L511.43 420.86L511.62 421.07L511.8 421.3L511.98 421.53L512.14 421.76L512.29 422L512.43 422.24L512.56 422.49L512.68 422.74L512.79 423L512.89 423.26L512.97 423.52L513.05 423.78L513.12 424.05L513.18 424.32L513.22 424.59L513.26 424.86L513.29 425.13L513.3 425.4L513.31 425.68L513.3 425.95L513.29 426.22L513.26 426.5L513.22 426.77L513.18 427.04L513.12 427.31L513.05 427.57L512.97 427.84L512.89 428.1L512.79 428.36L512.68 428.61L512.56 428.86L512.43 429.11L512.29 429.35L512.14 429.59L511.98 429.83L511.8 430.06L511.62 430.28L511.43 430.5L511.23 430.71L430.71 511.23L430.5 511.43L430.28 511.62L430.06 511.8L429.83 511.98L429.59 512.14L429.35 512.29L429.11 512.43L428.86 512.56L428.61 512.68L428.36 512.79L428.1 512.89L427.84 512.97L427.57 513.05L427.31 513.12L427.04 513.18L426.77 513.22L426.5 513.26L426.22 513.29L425.95 513.3L425.68 513.31L425.4 513.3L425.13 513.29L424.86 513.26L424.59 513.22L424.32 513.18L424.05 513.12L423.78 513.05L423.52 512.97L423.26 512.89L423 512.79L422.74 512.68L422.49 512.56L422.24 512.43L422 512.29L421.76 512.14L421.53 511.98L421.3 511.8L421.07 511.62L420.86 511.43L420.64 511.23L320 410.58L219.36 511.23L219.14 511.43L218.93 511.62L218.7 511.8L218.47 511.98L218.24 512.14L218 512.29L217.76 512.43L217.51 512.56L217.26 512.68L217 512.79L216.74 512.89L216.48 512.97L216.22 513.05L215.95 513.12L215.68 513.18L215.41 513.22L215.14 513.26L214.87 513.29L214.6 513.3L214.32 513.31L214.05 513.3L213.78 513.29L213.5 513.26L213.23 513.22L212.96 513.18L212.69 513.12L212.43 513.05L212.16 512.97L211.9 512.89L211.64 512.79L211.39 512.68L211.14 512.56L210.89 512.43L210.65 512.29L210.41 512.14L210.17 511.98L209.94 511.8L209.72 511.62L209.5 511.43L209.29 511.23L128.77 430.71L128.57 430.5L128.38 430.28L128.2 430.06L128.02 429.83L127.86 429.59L127.71 429.35L127.57 429.11L127.44 428.86L127.32 428.61L127.21 428.36L127.11 428.1L127.03 427.84L126.95 427.57L126.88 427.31L126.82 427.04L126.78 426.77L126.74 426.5L126.71 426.22L126.7 425.95L126.69 425.68L126.7 425.4L126.71 425.13L126.74 424.86L126.78 424.59L126.82 424.32L126.88 424.05L126.95 423.78L127.03 423.52L127.11 423.26L127.21 423L127.32 422.74L127.44 422.49L127.57 422.24L127.71 422L127.86 421.76L128.02 421.53L128.2 421.3L128.38 421.07L128.57 420.86L128.77 420.64L229.42 320L128.77 219.36L128.57 219.14L128.38 218.93L128.2 218.7L128.02 218.47L127.86 218.24L127.71 218L127.57 217.76L127.44 217.51L127.32 217.26L127.21 217L127.11 216.74L127.03 216.48L126.95 216.22L126.88 215.95L126.82 215.68L126.78 215.41L126.74 215.14L126.71 214.87L126.7 214.6L126.69 214.32L126.7 214.05L126.71 213.78L126.74 213.5L126.78 213.23L126.82 212.96L126.88 212.69L126.95 212.43L127.03 212.16L127.11 211.9L127.21 211.64L127.32 211.39L127.44 211.14L127.57 210.89L127.71 210.65L127.86 210.41L128.02 210.17L128.2 209.94L128.38 209.72L128.57 209.5L128.77 209.29L209.29 128.77L209.5 128.57L209.72 128.38Z" id="d84PJIDbg"></path></defs><g><g><g><use xlink:href="#d84PJIDbg" opacity="1" fill="#ff1e45" fill-opacity="1"></use></g></g></g></svg>