<?xml version="1.0" encoding="UTF-8" standalone="no"?>
<!DOCTYPE svg PUBLIC "-//W3C//DTD SVG 1.1//EN" "http://www.w3.org/Graphics/SVG/1.1/DTD/svg11.dtd">
<svg version="1.1" xmlns="http://www.w3.org/2000/svg" xmlns:xlink="http://www.w3.org/1999/xlink" preserveAspectRatio="xMidYMid meet" viewBox="0 0 640 640" width="640" height="640"><defs><path d="M598.7 248.87C600.9 248.87 602.41 251.09 601.61 253.13C577.09 315.68 506.03 496.92 481.72 558.93C480.08 563.1 476.06 565.84 471.58 565.84C409.52 565.84 236.7 565.84 176.12 565.84C167.16 565.84 159.11 560.39 155.78 552.08C131.48 491.44 63.27 321.14 38.76 259.96C36.63 254.65 40.54 248.87 46.26 248.87C157.67 248.87 485.83 248.87 598.7 248.87Z" id="a3FLrRlut"></path><path d="M523.02 248.87C490.13 157.91 469.57 101.06 461.35 78.32C460.44 75.82 458.07 74.16 455.42 74.16C401.75 74.16 247.4 74.16 194.29 74.16C190.01 74.16 186.25 76.96 185.02 81.06C178.35 103.43 161.65 159.37 134.94 248.87L523.02 248.87Z" id="c1N55uNsYA"></path><path d="M316.34 308.84C332.4 308.84 345.42 321.86 345.42 337.93C345.42 370.07 345.42 439.23 345.42 471.83C345.42 486.65 333.4 498.67 318.57 498.67C313.48 498.67 323.84 498.67 318.45 498.67C304.45 498.67 293.09 487.32 293.09 473.32C293.09 440.42 293.09 370.07 293.09 337.93C293.09 321.86 306.11 308.84 322.18 308.84C326.82 308.84 311.69 308.84 316.34 308.84Z" id="e4XtYsnob"></path><path d="M419.49 310.82C435.22 310.82 447.97 323.57 447.97 339.3C447.97 370.78 447.97 438.49 447.97 470.41C447.97 484.93 436.2 496.69 421.68 496.69C416.69 496.69 426.85 496.69 421.56 496.69C407.85 496.69 396.74 485.58 396.74 471.87C396.74 439.66 396.74 370.78 396.74 339.3C396.74 323.57 409.49 310.82 425.21 310.82C429.76 310.82 414.94 310.82 419.49 310.82Z" id="b2qrkOiEaS"></path><path d="M214.79 310.82C230.52 310.82 243.27 323.57 243.27 339.3C243.27 370.78 243.27 438.49 243.27 470.41C243.27 484.93 231.5 496.69 216.98 496.69C211.99 496.69 222.14 496.69 216.86 496.69C203.15 496.69 192.03 485.58 192.03 471.87C192.03 439.66 192.03 370.78 192.03 339.3C192.03 323.57 204.78 310.82 220.51 310.82C225.06 310.82 210.24 310.82 214.79 310.82Z" id="e1k6umLhg"></path></defs><g><g><g><g><use xlink:href="#a3FLrRlut" opacity="1" fill-opacity="0" stroke="#bae1ff" stroke-width="65" stroke-opacity="1"></use></g></g><g><g><use xlink:href="#c1N55uNsYA" opacity="1" fill-opacity="0" stroke="#bae1ff" stroke-width="65" stroke-opacity="1"></use></g></g><g><use xlink:href="#e4XtYsnob" opacity="1" fill="#bae1ff" fill-opacity="1"></use></g><g><use xlink:href="#b2qrkOiEaS" opacity="1" fill="#bae1ff" fill-opacity="1"></use></g><g><use xlink:href="#e1k6umLhg" opacity="1" fill="#bae1ff" fill-opacity="1"></use></g></g></g></svg>