<?xml version="1.0" encoding="UTF-8" standalone="no"?>
<!DOCTYPE svg PUBLIC "-//W3C//DTD SVG 1.1//EN" "http://www.w3.org/Graphics/SVG/1.1/DTD/svg11.dtd">
<svg version="1.1" xmlns="http://www.w3.org/2000/svg" xmlns:xlink="http://www.w3.org/1999/xlink" preserveAspectRatio="xMidYMid meet" viewBox="0 0 640 640" width="640" height="640"><defs><path d="M293.8 103.78L300.9 104.5L307.92 105.5L314.85 106.77L321.68 108.31L328.41 110.11L335.03 112.17L341.53 114.48L347.92 117.03L354.18 119.83L360.3 122.85L366.29 126.11L372.14 129.58L377.84 133.28L383.38 137.18L388.77 141.29L393.99 145.6L399.04 150.1L403.91 154.79L408.6 159.66L413.1 164.71L417.41 169.93L421.52 175.31L425.42 180.86L429.11 186.56L432.59 192.4L435.84 198.39L438.87 204.52L441.66 210.78L444.22 217.16L446.52 223.67L448.58 230.29L450.39 237.02L451.93 243.85L453.2 250.77L454.2 257.79L454.92 264.9L455.36 272.09L455.51 279.35L455.36 286.61L454.92 293.8L454.2 300.9L453.2 307.92L451.93 314.85L450.39 321.68L448.58 328.41L446.52 335.03L444.22 341.53L441.66 347.92L438.87 354.18L435.84 360.3L432.59 366.29L429.11 372.14L425.55 377.65L536.81 488.9L488.9 536.81L377.65 425.55L372.14 429.11L366.29 432.59L360.3 435.84L354.18 438.87L347.92 441.66L341.53 444.22L335.03 446.52L328.41 448.58L321.68 450.39L314.85 451.93L307.92 453.2L300.9 454.2L293.8 454.92L286.61 455.36L279.35 455.51L272.09 455.36L264.9 454.92L257.79 454.2L250.77 453.2L243.85 451.93L237.02 450.39L230.29 448.58L223.67 446.52L217.16 444.22L210.78 441.66L204.52 438.87L198.39 435.84L192.4 432.59L186.56 429.11L180.86 425.42L175.31 421.52L169.93 417.41L164.71 413.1L159.66 408.6L154.79 403.91L150.1 399.04L145.6 393.99L141.29 388.77L137.18 383.38L133.28 377.84L129.58 372.14L126.11 366.29L122.85 360.3L119.83 354.18L117.03 347.92L114.48 341.53L112.17 335.03L110.11 328.41L108.31 321.68L106.77 314.85L105.5 307.92L104.5 300.9L103.78 293.8L103.34 286.61L103.19 279.35L103.34 272.09L103.78 264.9L104.5 257.79L105.5 250.77L106.77 243.85L108.31 237.02L110.11 230.29L112.17 223.67L114.48 217.16L117.03 210.78L119.83 204.52L122.85 198.39L126.11 192.4L129.58 186.56L133.28 180.86L137.18 175.31L141.29 169.93L145.6 164.71L150.1 159.66L154.79 154.79L159.66 150.1L164.71 145.6L169.93 141.29L175.31 137.18L180.86 133.28L186.56 129.58L192.4 126.11L198.39 122.85L204.52 119.83L210.78 117.03L217.16 114.48L223.67 112.17L230.29 110.11L237.02 108.31L243.85 106.77L250.77 105.5L257.79 104.5L264.9 103.78L272.09 103.34L279.35 103.19L286.61 103.34L293.8 103.78ZM270.43 171.02L266.05 171.46L261.72 172.08L257.44 172.86L253.23 173.81L249.08 174.93L244.99 176.2L240.98 177.62L237.04 179.2L233.18 180.92L229.4 182.79L225.7 184.8L222.09 186.94L218.58 189.22L215.16 191.63L211.83 194.16L208.61 196.82L205.5 199.6L202.49 202.49L199.6 205.5L196.82 208.61L194.16 211.83L191.63 215.16L189.22 218.58L186.94 222.09L184.8 225.7L182.79 229.4L180.92 233.18L179.2 237.04L177.62 240.98L176.2 244.99L174.93 249.08L173.81 253.23L172.86 257.44L172.08 261.72L171.46 266.05L171.02 270.43L170.75 274.87L170.66 279.35L170.75 283.83L171.02 288.26L171.46 292.65L172.08 296.98L172.86 301.25L173.81 305.47L174.93 309.62L176.2 313.7L177.62 317.72L179.2 321.66L180.92 325.52L182.79 329.3L184.8 332.99L186.94 336.6L189.22 340.12L191.63 343.54L194.16 346.86L196.82 350.08L199.6 353.2L202.49 356.21L205.5 359.1L208.61 361.88L211.83 364.53L215.16 367.07L218.58 369.48L222.09 371.76L225.7 373.9L229.4 375.91L233.18 377.78L237.04 379.5L240.98 381.08L244.99 382.5L249.08 383.77L253.23 384.88L257.44 385.83L261.72 386.62L266.05 387.24L270.43 387.68L274.87 387.95L279.35 388.04L283.83 387.95L288.26 387.68L292.65 387.24L296.98 386.62L301.25 385.83L305.47 384.88L309.62 383.77L313.7 382.5L317.72 381.08L321.66 379.5L325.52 377.78L329.3 375.91L332.99 373.9L336.6 371.76L340.12 369.48L343.54 367.07L346.86 364.53L350.08 361.88L353.2 359.1L356.21 356.21L359.1 353.2L361.88 350.08L364.53 346.86L367.07 343.54L369.48 340.12L371.76 336.6L373.9 332.99L375.91 329.3L377.78 325.52L379.5 321.66L381.08 317.72L382.5 313.7L383.77 309.62L384.88 305.47L385.83 301.25L386.62 296.98L387.24 292.65L387.68 288.26L387.95 283.83L388.04 279.35L387.95 274.87L387.68 270.43L387.24 266.05L386.62 261.72L385.83 257.44L384.88 253.23L383.77 249.08L382.5 244.99L381.08 240.98L379.5 237.04L377.78 233.18L375.91 229.4L373.9 225.7L371.76 222.09L369.48 218.58L367.07 215.16L364.53 211.83L361.88 208.61L359.1 205.5L356.21 202.49L353.2 199.6L350.08 196.82L346.86 194.16L343.54 191.63L340.12 189.22L336.6 186.94L332.99 184.8L329.3 182.79L325.52 180.92L321.66 179.2L317.72 177.62L313.7 176.2L309.62 174.93L305.47 173.81L301.25 172.86L296.98 172.08L292.65 171.46L288.26 171.02L283.83 170.75L279.35 170.66L274.87 170.75L270.43 171.02Z" id="dmwDxApQY"></path></defs><g><g><g><use xlink:href="#dmwDxApQY" opacity="1" fill="#bae1ff" fill-opacity="1"></use></g></g></g></svg>