<?xml version="1.0" encoding="UTF-8" standalone="no"?>
<!DOCTYPE svg PUBLIC "-//W3C//DTD SVG 1.1//EN" "http://www.w3.org/Graphics/SVG/1.1/DTD/svg11.dtd">
<svg version="1.1" xmlns="http://www.w3.org/2000/svg" xmlns:xlink="http://www.w3.org/1999/xlink" preserveAspectRatio="xMidYMid meet" viewBox="0 0 120 120" width="120" height="120"><defs><path d="M0 55L10 55L10 65L0 65L0 55Z" id="bwndNR5WJ"></path><path d="M0 65L10 65L10 75L0 75L0 65Z" id="a35zub7SFJ"></path><path d="M0 75L10 75L10 85L0 85L0 75Z" id="aEvaiqSt6"></path><path d="M10 75L20 75L20 85L10 85L10 75Z" id="bAgdfCTYs"></path><path d="M10 65L20 65L20 75L10 75L10 65Z" id="c871ylGgW"></path><path d="M10 55L20 55L20 65L10 65L10 55Z" id="f1EN6F7Y4H"></path><path d="M10 45L20 45L20 55L10 55L10 45Z" id="bGCbpOOya"></path><path d="M10 85L20 85L20 95L10 95L10 85Z" id="b1RQtQ7yn"></path><path d="M20 65L30 65L30 75L20 75L20 65Z" id="cc6wPDkhv"></path><path d="M20 75L30 75L30 85L20 85L20 75Z" id="adGt1boOR"></path><path d="M20 55L30 55L30 65L20 65L20 55Z" id="a12U42JK3c"></path><path d="M20 45L30 45L30 55L20 55L20 45Z" id="a3uU5YMj3n"></path><path d="M20 35L30 35L30 45L20 45L20 35Z" id="d8hOUtJMiQ"></path><path d="M20 85L30 85L30 95L20 95L20 85Z" id="a3nrBWrmtr"></path><path d="M30 85L40 85L40 95L30 95L30 85Z" id="a1fz8J2Ql"></path><path d="M20 95L30 95L30 105L20 105L20 95Z" id="baRHdy45B"></path><path d="M30 95L40 95L40 105L30 105L30 95Z" id="d4913Gq0Z"></path><path d="M30 75L40 75L40 85L30 85L30 75Z" id="c1LG2XeXa2"></path><path d="M30 65L40 65L40 75L30 75L30 65Z" id="bB4l2YcEN"></path><path d="M30 55L40 55L40 65L30 65L30 55Z" id="d1iuPpbama"></path><path d="M30 45L40 45L40 55L30 55L30 45Z" id="c5cGlgEdeQ"></path><path d="M30 35L40 35L40 45L30 45L30 35Z" id="h1NeTVPgOu"></path><path d="M30 25L40 25L40 35L30 35L30 25Z" id="g9lDkWdUa"></path><path d="M40 25L50 25L50 35L40 35L40 25Z" id="asnuTa2WN"></path><path d="M40 15L50 15L50 25L40 25L40 15Z" id="a2yFYRA9hd"></path><path d="M40 35L50 35L50 45L40 45L40 35Z" id="a1qucOAGjy"></path><path d="M40 45L50 45L50 55L40 55L40 45Z" id="aPkQLhr8B"></path><path d="M40 55L50 55L50 65L40 65L40 55Z" id="b1SuV49P7y"></path><path d="M40 65L50 65L50 75L40 75L40 65Z" id="a27Jn89Ehd"></path><path d="M40 75L50 75L50 85L40 85L40 75Z" id="b2YP3l6zJl"></path><path d="M40 85L50 85L50 95L40 95L40 85Z" id="j2m94SAHS7"></path><path d="M40 95L50 95L50 105L40 105L40 95Z" id="b3XlVS7UKR"></path><path d="M50 95L60 95L60 105L50 105L50 95Z" id="f2oFgNG0x5"></path><path d="M60 95L70 95L70 105L60 105L60 95Z" id="b2tfw9JFwn"></path><path d="M70 95L80 95L80 105L70 105L70 95Z" id="a6JCOgAgN"></path><path d="M40 105L50 105L50 115L40 115L40 105Z" id="a25rjqQtrd"></path><path d="M50 105L60 105L60 115L50 115L50 105Z" id="bF5znFmvy"></path><path d="M60 105L70 105L70 115L60 115L60 105Z" id="b8KYQ3rKs1"></path><path d="M70 105L80 105L80 115L70 115L70 105Z" id="c68spp4HHG"></path><path d="M50 85L60 85L60 95L50 95L50 85Z" id="cqy67x0MG"></path><path d="M50 75L60 75L60 85L50 85L50 75Z" id="b6STy0FFGW"></path><path d="M50 65L60 65L60 75L50 75L50 65Z" id="bkrGyejUb"></path><path d="M50 55L60 55L60 65L50 65L50 55Z" id="afCSRCEmO"></path><path d="M50 45L60 45L60 55L50 55L50 45Z" id="a1WVNm5qk"></path><path d="M50 35L60 35L60 45L50 45L50 35Z" id="cf8GHQk4E"></path><path d="M50 25L60 25L60 35L50 35L50 25Z" id="awxa54ITc"></path><path d="M50 15L60 15L60 25L50 25L50 15Z" id="a7zuH75Ns"></path><path d="M60 15L70 15L70 25L60 25L60 15Z" id="avRbW4gfr"></path><path d="M60 25L70 25L70 35L60 35L60 25Z" id="dBY1bi6IS"></path><path d="M60 35L70 35L70 45L60 45L60 35Z" id="baE5tm9tn"></path><path d="M60 45L70 45L70 55L60 55L60 45Z" id="cOlaF8OjT"></path><path d="M60 55L70 55L70 65L60 65L60 55Z" id="j7R9e3CHd"></path><path d="M60 65L70 65L70 75L60 75L60 65Z" id="b30V945Mup"></path><path d="M60 75L70 75L70 85L60 85L60 75Z" id="b5cDNOXPMW"></path><path d="M60 85L70 85L70 95L60 95L60 85Z" id="bnGy9DhmN"></path><path d="M70 85L80 85L80 95L70 95L70 85Z" id="a5xEPCUSXd"></path><path d="M70 75L80 75L80 85L70 85L70 75Z" id="d3Ah0yEFj"></path><path d="M70 65L80 65L80 75L70 75L70 65Z" id="e1CM9iNozy"></path><path d="M70 55L80 55L80 65L70 65L70 55Z" id="c77rf8rm7g"></path><path d="M70 45L80 45L80 55L70 55L70 45Z" id="h2lYDCwFjJ"></path><path d="M70 35L80 35L80 45L70 45L70 35Z" id="b2Z0xUeKxM"></path><path d="M70 25L80 25L80 35L70 35L70 25Z" id="ahQI10B9I"></path><path d="M70 25L80 25L80 15L70 15L70 25Z" id="d7Gh5aAppQ"></path><path d="M60 15L70 15L70 5L60 5L60 15Z" id="c3GYIyqrM"></path><path d="M50 5L60 5L60 15L50 15L50 5Z" id="c1IL0K3bOh"></path><path d="M80 25L90 25L90 35L80 35L80 25Z" id="e1C39ZCO22"></path><path d="M80 35L90 35L90 45L80 45L80 35Z" id="a1htKd2HKZ"></path><path d="M90 35L100 35L100 45L90 45L90 35Z" id="a8LmLB4nF0"></path><path d="M80 45L90 45L90 55L80 55L80 45Z" id="eH15gMuaE"></path><path d="M90 45L100 45L100 55L90 55L90 45Z" id="gxDixI8V"></path><path d="M80 55L90 55L90 65L80 65L80 55Z" id="m3JooQ70EZ"></path><path d="M90 55L100 55L100 65L90 65L90 55Z" id="b1Mu750fvg"></path><path d="M90 75L100 75L100 85L90 85L90 75Z" id="a4oaDGMVW"></path><path d="M80 65L90 65L90 75L80 75L80 65Z" id="aQbQeJuPM"></path><path d="M100 65L90 65L90 75L100 75L100 65Z" id="a16S3R4U8B"></path><path d="M90 85L100 85L100 95L90 95L90 85Z" id="h1tsONiSkP"></path><path d="M80 75L90 75L90 85L80 85L80 75Z" id="b1Vao0iDzs"></path><path d="M80 85L90 85L90 95L80 95L80 85Z" id="aqfKHDpPc"></path><path d="M100 75L110 75L110 85L100 85L100 75Z" id="cUiO3IoEM"></path><path d="M90 95L100 95L100 105L90 105L90 95Z" id="gdpMOPHk4"></path><path d="M80 95L90 95L90 105L80 105L80 95Z" id="c3lWxHF1uX"></path><path d="M100 85L110 85L110 95L100 95L100 85Z" id="e2MTOIp20R"></path><path d="M110 75L120 75L120 85L110 85L110 75Z" id="dl62kfC0o"></path><path d="M110 65L120 65L120 75L110 75L110 65Z" id="aqUO55Hpc"></path><path d="M110 55L120 55L120 65L110 65L110 55Z" id="b1h2kx88uf"></path><path d="M100 45L110 45L110 55L100 55L100 45Z" id="bEkorXNXs"></path><path d="M100 55L110 55L110 65L100 65L100 55Z" id="a1u8DU4ILA"></path><path d="M100 65L110 65L110 75L100 75L100 65Z" id="aIPQtLvMN"></path></defs><g><g><g><use xlink:href="#bwndNR5WJ" opacity="1" fill="#2d0000" fill-opacity="1"></use></g><g><use xlink:href="#a35zub7SFJ" opacity="1" fill="#2d0000" fill-opacity="1"></use></g><g><use xlink:href="#aEvaiqSt6" opacity="1" fill="#2d0000" fill-opacity="1"></use></g><g><use xlink:href="#bAgdfCTYs" opacity="1" fill="#490000" fill-opacity="1"></use></g><g><use xlink:href="#c871ylGgW" opacity="1" fill="#720000" fill-opacity="1"></use></g><g><use xlink:href="#f1EN6F7Y4H" opacity="1" fill="#ff0000" fill-opacity="1"></use></g><g><use xlink:href="#bGCbpOOya" opacity="1" fill="#2d0000" fill-opacity="1"></use></g><g><use xlink:href="#b1RQtQ7yn" opacity="1" fill="#2d0000" fill-opacity="1"></use></g><g><use xlink:href="#cc6wPDkhv" opacity="1" fill="#540000" fill-opacity="1"></use></g><g><use xlink:href="#adGt1boOR" opacity="1" fill="#720000" fill-opacity="1"></use></g><g><use xlink:href="#a12U42JK3c" opacity="1" fill="#720000" fill-opacity="1"></use></g><g><use xlink:href="#a3uU5YMj3n" opacity="1" fill="#720000" fill-opacity="1"></use></g><g><use xlink:href="#d8hOUtJMiQ" opacity="1" fill="#2d0000" fill-opacity="1"></use></g><g><use xlink:href="#a3nrBWrmtr" opacity="1" fill="#490000" fill-opacity="1"></use></g><g><use xlink:href="#a1fz8J2Ql" opacity="1" fill="#490000" fill-opacity="1"></use></g><g><use xlink:href="#baRHdy45B" opacity="1" fill="#2d0000" fill-opacity="1"></use></g><g><use xlink:href="#d4913Gq0Z" opacity="1" fill="#2d0000" fill-opacity="1"></use></g><g><use xlink:href="#c1LG2XeXa2" opacity="1" fill="#ff0000" fill-opacity="1"></use></g><g><use xlink:href="#bB4l2YcEN" opacity="1" fill="#720000" fill-opacity="1"></use></g><g><use xlink:href="#d1iuPpbama" opacity="1" fill="#720000" fill-opacity="1"></use></g><g><use xlink:href="#c5cGlgEdeQ" opacity="1" fill="#720000" fill-opacity="1"></use></g><g><use xlink:href="#h1NeTVPgOu" opacity="1" fill="#720000" fill-opacity="1"></use></g><g><use xlink:href="#g9lDkWdUa" opacity="1" fill="#2d0000" fill-opacity="1"></use></g><g><use xlink:href="#asnuTa2WN" opacity="1" fill="#ff0000" fill-opacity="1"></use></g><g><use xlink:href="#a2yFYRA9hd" opacity="1" fill="#2d0000" fill-opacity="1"></use></g><g><use xlink:href="#a1qucOAGjy" opacity="1" fill="#720000" fill-opacity="1"></use></g><g><use xlink:href="#aPkQLhr8B" opacity="1" fill="#720000" fill-opacity="1"></use></g><g><use xlink:href="#b1SuV49P7y" opacity="1" fill="#540000" fill-opacity="1"></use></g><g><use xlink:href="#a27Jn89Ehd" opacity="1" fill="#720000" fill-opacity="1"></use></g><g><use xlink:href="#b2YP3l6zJl" opacity="1" fill="#720000" fill-opacity="1"></use></g><g><use xlink:href="#j2m94SAHS7" opacity="1" fill="#720000" fill-opacity="1"></use></g><g><use xlink:href="#b3XlVS7UKR" opacity="1" fill="#490000" fill-opacity="1"></use></g><g><use xlink:href="#f2oFgNG0x5" opacity="1" fill="#490000" fill-opacity="1"></use></g><g><use xlink:href="#b2tfw9JFwn" opacity="1" fill="#490000" fill-opacity="1"></use></g><g><use xlink:href="#a6JCOgAgN" opacity="1" fill="#490000" fill-opacity="1"></use></g><g><use xlink:href="#a25rjqQtrd" opacity="1" fill="#2d0000" fill-opacity="1"></use></g><g><use xlink:href="#bF5znFmvy" opacity="1" fill="#2d0000" fill-opacity="1"></use></g><g><use xlink:href="#b8KYQ3rKs1" opacity="1" fill="#2d0000" fill-opacity="1"></use></g><g><use xlink:href="#c68spp4HHG" opacity="1" fill="#2d0000" fill-opacity="1"></use></g><g><use xlink:href="#cqy67x0MG" opacity="1" fill="#720000" fill-opacity="1"></use></g><g><use xlink:href="#b6STy0FFGW" opacity="1" fill="#720000" fill-opacity="1"></use></g><g><use xlink:href="#bkrGyejUb" opacity="1" fill="#720000" fill-opacity="1"></use></g><g><use xlink:href="#afCSRCEmO" opacity="1" fill="#720000" fill-opacity="1"></use></g><g><use xlink:href="#a1WVNm5qk" opacity="1" fill="#720000" fill-opacity="1"></use></g><g><use xlink:href="#cf8GHQk4E" opacity="1" fill="#720000" fill-opacity="1"></use></g><g><use xlink:href="#awxa54ITc" opacity="1" fill="#720000" fill-opacity="1"></use></g><g><use xlink:href="#a7zuH75Ns" opacity="1" fill="#720000" fill-opacity="1"></use></g><g><use xlink:href="#avRbW4gfr" opacity="1" fill="#720000" fill-opacity="1"></use></g><g><use xlink:href="#dBY1bi6IS" opacity="1" fill="#540000" fill-opacity="1"></use></g><g><use xlink:href="#baE5tm9tn" opacity="1" fill="#720000" fill-opacity="1"></use></g><g><use xlink:href="#cOlaF8OjT" opacity="1" fill="#720000" fill-opacity="1"></use></g><g><use xlink:href="#j7R9e3CHd" opacity="1" fill="#ff0000" fill-opacity="1"></use></g><g><use xlink:href="#b30V945Mup" opacity="1" fill="#720000" fill-opacity="1"></use></g><g><use xlink:href="#b5cDNOXPMW" opacity="1" fill="#720000" fill-opacity="1"></use></g><g><use xlink:href="#bnGy9DhmN" opacity="1" fill="#360000" fill-opacity="1"></use></g><g><use xlink:href="#a5xEPCUSXd" opacity="1" fill="#490000" fill-opacity="1"></use></g><g><use xlink:href="#d3Ah0yEFj" opacity="1" fill="#490000" fill-opacity="1"></use></g><g><use xlink:href="#e1CM9iNozy" opacity="1" fill="#490000" fill-opacity="1"></use></g><g><use xlink:href="#c77rf8rm7g" opacity="1" fill="#490000" fill-opacity="1"></use></g><g><use xlink:href="#h2lYDCwFjJ" opacity="1" fill="#490000" fill-opacity="1"></use></g><g><use xlink:href="#b2Z0xUeKxM" opacity="1" fill="#490000" fill-opacity="1"></use></g><g><use xlink:href="#ahQI10B9I" opacity="1" fill="#490000" fill-opacity="1"></use></g><g><use xlink:href="#d7Gh5aAppQ" opacity="1" fill="#2d0000" fill-opacity="1"></use></g><g><use xlink:href="#c3GYIyqrM" opacity="1" fill="#2d0000" fill-opacity="1"></use></g><g><use xlink:href="#c1IL0K3bOh" opacity="1" fill="#2d0000" fill-opacity="1"></use></g><g><use xlink:href="#e1C39ZCO22" opacity="1" fill="#2d0000" fill-opacity="1"></use></g><g><use xlink:href="#a1htKd2HKZ" opacity="1" fill="#490000" fill-opacity="1"></use></g><g><use xlink:href="#a8LmLB4nF0" opacity="1" fill="#2d0000" fill-opacity="1"></use></g><g><use xlink:href="#eH15gMuaE" opacity="1" fill="#360000" fill-opacity="1"></use></g><g><use xlink:href="#gxDixI8V" opacity="1" fill="#ff0000" fill-opacity="1"></use></g><g><use xlink:href="#m3JooQ70EZ" opacity="1" fill="#490000" fill-opacity="1"></use></g><g><use xlink:href="#b1Mu750fvg" opacity="1" fill="#490000" fill-opacity="1"></use></g><g><use xlink:href="#a4oaDGMVW" opacity="1" fill="#490000" fill-opacity="1"></use></g><g><use xlink:href="#aQbQeJuPM" opacity="1" fill="#490000" fill-opacity="1"></use></g><g><use xlink:href="#a16S3R4U8B" opacity="1" fill="#360000" fill-opacity="1"></use></g><g><use xlink:href="#h1tsONiSkP" opacity="1" fill="#ff0000" fill-opacity="1"></use></g><g><use xlink:href="#b1Vao0iDzs" opacity="1" fill="#490000" fill-opacity="1"></use></g><g><use xlink:href="#aqfKHDpPc" opacity="1" fill="#490000" fill-opacity="1"></use></g><g><use xlink:href="#cUiO3IoEM" opacity="1" fill="#490000" fill-opacity="1"></use></g><g><use xlink:href="#gdpMOPHk4" opacity="1" fill="#2d0000" fill-opacity="1"></use></g><g><use xlink:href="#c3lWxHF1uX" opacity="1" fill="#2d0000" fill-opacity="1"></use></g><g><use xlink:href="#e2MTOIp20R" opacity="1" fill="#2d0000" fill-opacity="1"></use></g><g><use xlink:href="#dl62kfC0o" opacity="1" fill="#2d0000" fill-opacity="1"></use></g><g><use xlink:href="#aqUO55Hpc" opacity="1" fill="#2d0000" fill-opacity="1"></use></g><g><use xlink:href="#b1h2kx88uf" opacity="1" fill="#2d0000" fill-opacity="1"></use></g><g><use xlink:href="#bEkorXNXs" opacity="1" fill="#2d0000" fill-opacity="1"></use></g><g><use xlink:href="#a1u8DU4ILA" opacity="1" fill="#490000" fill-opacity="1"></use></g><g><use xlink:href="#aIPQtLvMN" opacity="1" fill="#490000" fill-opacity="1"></use></g></g></g></svg>