<?xml version="1.0" encoding="UTF-8" standalone="no"?>
<!DOCTYPE svg PUBLIC "-//W3C//DTD SVG 1.1//EN" "http://www.w3.org/Graphics/SVG/1.1/DTD/svg11.dtd">
<svg version="1.1" xmlns="http://www.w3.org/2000/svg" xmlns:xlink="http://www.w3.org/1999/xlink" preserveAspectRatio="xMidYMid meet" viewBox="0 0 640 640" width="640" height="640"><defs><path d="M610.12 0C626.62 0 640 13.38 640 29.88C640 56.38 640 106.01 640 132.51C640 149.01 626.62 162.39 610.12 162.39C488.1 162.39 151.9 162.39 29.88 162.39C13.38 162.39 0 149.01 0 132.51C0 106.01 0 56.38 0 29.88C0 13.38 13.38 0 29.88 0C151.9 0 488.1 0 610.12 0Z" id="b1PHZ8YnLm"></path><clipPath id="clipb1XS1sQG8U"><use xlink:href="#b1PHZ8YnLm" opacity="1"></use></clipPath><path d="M101.06 81.2C101.06 91.65 92.57 100.14 82.12 100.14C71.67 100.14 63.18 91.65 63.18 81.2C63.18 70.74 71.67 62.26 82.12 62.26C92.57 62.26 101.06 70.74 101.06 81.2Z" id="aR7VhVhu2"></path><path d="" id="a3HKtboZ"></path><path d="M561.79 77.07C564.07 77.07 565.92 78.92 565.92 81.2C565.92 82.02 565.92 80.37 565.92 81.2C565.92 83.47 564.07 85.32 561.79 85.32C480.29 85.32 239.88 85.32 158.37 85.32C156.1 85.32 154.25 83.47 154.25 81.2C154.25 80.37 154.25 82.02 154.25 81.2C154.25 78.92 156.1 77.07 158.37 77.07C239.88 77.07 480.29 77.07 561.79 77.07Z" id="b3mlvh29Ca"></path><path d="M610.12 477.61C626.62 477.61 640 490.99 640 507.49C640 533.99 640 583.62 640 610.12C640 626.62 626.62 640 610.12 640C488.1 640 151.9 640 29.88 640C13.38 640 0 626.62 0 610.12C0 583.62 0 533.99 0 507.49C0 490.99 13.38 477.61 29.88 477.61C151.9 477.61 488.1 477.61 610.12 477.61Z" id="agj8bV0fR"></path><clipPath id="clipa5szi8SE4W"><use xlink:href="#agj8bV0fR" opacity="1"></use></clipPath><path d="M101.06 558.8C101.06 569.26 92.57 577.74 82.12 577.74C71.67 577.74 63.18 569.26 63.18 558.8C63.18 548.35 71.67 539.86 82.12 539.86C92.57 539.86 101.06 548.35 101.06 558.8Z" id="b1CrddskbK"></path><path d="" id="d1TzkMQa70"></path><path d="M561.79 554.68C564.07 554.68 565.92 556.53 565.92 558.8C565.92 559.63 565.92 557.98 565.92 558.8C565.92 561.08 564.07 562.93 561.79 562.93C480.29 562.93 239.88 562.93 158.37 562.93C156.1 562.93 154.25 561.08 154.25 558.8C154.25 557.98 154.25 559.63 154.25 558.8C154.25 556.53 156.1 554.68 158.37 554.68C239.88 554.68 480.29 554.68 561.79 554.68Z" id="bZDtcxU12"></path><path d="M610.12 238.8C626.62 238.8 640 252.18 640 268.68C640 295.19 640 344.81 640 371.32C640 387.82 626.62 401.2 610.12 401.2C488.1 401.2 151.9 401.2 29.88 401.2C13.38 401.2 0 387.82 0 371.32C0 344.81 0 295.19 0 268.68C0 252.18 13.38 238.8 29.88 238.8C151.9 238.8 488.1 238.8 610.12 238.8Z" id="anvOo0atd"></path><clipPath id="clipbnj0exGCD"><use xlink:href="#anvOo0atd" opacity="1"></use></clipPath><path d="M101.06 320C101.06 330.45 92.57 338.94 82.12 338.94C71.67 338.94 63.18 330.45 63.18 320C63.18 309.55 71.67 301.06 82.12 301.06C92.57 301.06 101.06 309.55 101.06 320Z" id="c4RhGpWxN6"></path><path d="" id="ahpTS9VuO"></path><path d="M561.79 315.88C564.07 315.88 565.92 317.72 565.92 320C565.92 320.82 565.92 319.18 565.92 320C565.92 322.28 564.07 324.12 561.79 324.12C480.29 324.12 239.88 324.12 158.37 324.12C156.1 324.12 154.25 322.28 154.25 320C154.25 319.18 154.25 320.82 154.25 320C154.25 317.72 156.1 315.88 158.37 315.88C239.88 315.88 480.29 315.88 561.79 315.88Z" id="c1LSh9tcIA"></path></defs><g><g><g><use xlink:href="#b1PHZ8YnLm" opacity="1" fill="#000000" fill-opacity="0"></use><g clip-path="url(#clipb1XS1sQG8U)"><use xlink:href="#b1PHZ8YnLm" opacity="1" fill-opacity="0" stroke="#000000" stroke-width="16" stroke-opacity="1"></use></g></g><g><use xlink:href="#aR7VhVhu2" opacity="1" fill="#d70000" fill-opacity="1"></use></g><g><g><use xlink:href="#a3HKtboZ" opacity="1" fill-opacity="0" stroke="#000000" stroke-width="8" stroke-opacity="1"></use></g></g><g><use xlink:href="#b3mlvh29Ca" opacity="1" fill="#000000" fill-opacity="0.98"></use></g><g><use xlink:href="#agj8bV0fR" opacity="1" fill="#000000" fill-opacity="0"></use><g clip-path="url(#clipa5szi8SE4W)"><use xlink:href="#agj8bV0fR" opacity="1" fill-opacity="0" stroke="#000000" stroke-width="16" stroke-opacity="1"></use></g></g><g><use xlink:href="#b1CrddskbK" opacity="1" fill="#d70000" fill-opacity="1"></use></g><g><g><use xlink:href="#d1TzkMQa70" opacity="1" fill-opacity="0" stroke="#000000" stroke-width="8" stroke-opacity="1"></use></g></g><g><use xlink:href="#bZDtcxU12" opacity="1" fill="#000000" fill-opacity="0.98"></use></g><g><use xlink:href="#anvOo0atd" opacity="1" fill="#000000" fill-opacity="0"></use><g clip-path="url(#clipbnj0exGCD)"><use xlink:href="#anvOo0atd" opacity="1" fill-opacity="0" stroke="#000000" stroke-width="16" stroke-opacity="1"></use></g></g><g><use xlink:href="#c4RhGpWxN6" opacity="1" fill="#d70000" fill-opacity="1"></use></g><g><g><use xlink:href="#ahpTS9VuO" opacity="1" fill-opacity="0" stroke="#000000" stroke-width="8" stroke-opacity="1"></use></g></g><g><use xlink:href="#c1LSh9tcIA" opacity="1" fill="#000000" fill-opacity="0.98"></use></g></g></g></svg>